<?xml version="1.0" encoding="UTF-8"?>
<svg id="Calque_2" data-name="Calque 2" xmlns="http://www.w3.org/2000/svg" viewBox="0 0 841.86 287.02">
  <defs>
    <style>
      .cls-1 {
        fill: #f1861f;
      }
    </style>
  </defs>
  <g id="Calque_1-2" data-name="Calque 1">
    <g>
      <path class="cls-1" d="M407.57,46.48c.47-3.21.9-5.11,1.56-8.3-1.44-10.2-2.3-22.53-.6-32.98-.15-.38-.3-.77-.41-1.18-.11-.81-.22-1.62-.33-2.43-21.63-1.13-25.01-1.06-24.08-.82-.78-.08-1.71-.17-2.85-.28-4.81-.47-20.14-2.11-36.7,5.08-13.36,5.8-22.8,15.3-29.36,24.12-.93,1.25-1.69,2.61-2.32,4.03-26.25,59.12-31.15,61.78-53.46,123.02-.85,3.31-3.9,5.37-6.82,4.96-2.23-.31-4.14-2.03-4.9-4.37l-67.28-111.2c-.82-1.93-1.88-3.75-3.25-5.33-3.03-3.49-8.91-8.79-17.08-9.25-12.14-.68-24.61,9.61-27.43,25.16-29.87,111.36-50.55,168.39-52.98,174.57-1.77,4.51-5.03,6.8-5.03,6.8-2.34,1.64-4.85,2.17-6.65,2.34-7.78-.37-11.07-.53-18.85-.9,1.03,15.73-.58,31.05.84,46.73l32.19.51c.55,0,1.1.05,1.65.1,4.1.37,15.03.65,24.48-6.71,3.5-2.73,10.63-10.15,11.08-10.72,10.42-13.56,10.63-19,17.27-44.73,12.41-45.03,21.64-78.09,24.36-87.65.63-2.23,2.11-7.22,4.72-7.47,2.17-.21,4.39,2.85,5.31,4.93,3.97,9.01,41.34,67.74,53.8,85.32.68,1.66,7.22,16.97,22.72,20.57,14.82,3.45,31.63-5.25,39.06-21.71,26.34-58.35,30.34-80.33,55.44-133.53,3.62-7.68,9.95-19.09,22.39-27.4,10.95-7.32,22.32-9.35,29.56-9.95l2.51-.04"/>
      <polygon class="cls-1" points="56.07 286.35 0 286.02 0 238.83 56.07 239.83 56.07 286.35"/>
      <rect class="cls-1" x="367.42" width="474.44" height="47.19"/>
    </g>
  </g>
</svg>