<?xml version="1.0" encoding="UTF-8"?>
<svg id="Calque_2" data-name="Calque 2" xmlns="http://www.w3.org/2000/svg" viewBox="0 0 206.03 250.07">
  <defs>
    <style>
      .cls-1 {
        fill: #a0b5df;
      }

      .cls-2 {
        fill: #1c2140;
      }

      .cls-3 {
        fill: #575656;
      }

      .cls-4 {
        fill: #595858;
      }

      .cls-5 {
        fill: #585757;
      }

      .cls-6 {
        fill: #575757;
      }

      .cls-7 {
        fill: #fff;
      }

      .cls-8 {
        fill: #104493;
      }

      .cls-9 {
        fill: #585858;
      }

      .cls-10 {
        fill: #f1861f;
      }
    </style>
  </defs>
  <g id="Calque_1-2" data-name="Calque 1">
    <g>
      <path class="cls-1" d="M43.99.42c28.02-3.58,52.75,16.35,56.31,43.32,3.65,27.7-15.95,52.98-43.45,56.54S4.21,84.57.47,57.22C-3.27,29.89,15.76,4.02,43.99.42Z"/>
      <path class="cls-8" d="M149.03.45c28.22-3.73,53.19,16.34,56.61,43.71,3.41,27.31-15.94,52.4-43.17,56.09-27.6,3.74-53.08-15.62-56.75-43.27-3.6-27.1,15.22-52.81,43.32-56.52Z"/>
      <path class="cls-2" d="M48.67,106.74c28.31-.98,51.08,21.33,52.04,48.57.97,27.81-20.86,51-48.42,52.07C24.57,208.45,1.17,186.74.04,159.18s20.22-51.45,48.63-52.43Z"/>
      <path class="cls-10" d="M154.33,106.74c28.19-.76,50.74,21.52,51.65,48.62s-21.08,51.15-48.71,52.03-50.83-20.77-51.94-48.23c-1.12-27.76,20.5-51.65,49-52.41Z"/>
      <path class="cls-3" d="M26.99,244.74c-.02.65-2.32,1-2.75.35l-7.02-10.74-.19,10.85c-1.27.17-1.93.15-2.94,0l.03-17.05c.77-.31,2.53-.39,2.92.21l6.84,10.54.19-10.8c.99-.13,1.66-.18,2.94.06l-.03,16.59Z"/>
      <path class="cls-3" d="M173.15,244.95c-.67.53-2.18.47-2.83.23l-.07-7.19c-.01-1.33-.71-2.29-1.75-2.51-1.18-.25-2.61.55-2.65,2.07l-.2,7.65c-1.02.14-1.66.17-2.97-.02l.16-11.91c.91-.77,2.66.38,3.32.39,3.04-1.49,4.51-1.46,6.72,1.14,1.42-1.55,2.74-2.19,4.36-2.13,1.51.06,3.6.78,3.65,2.72l.28,9.81-2.93.02v-7.24c-.01-1.34-.76-2.28-1.8-2.49-1.12-.23-2.81.45-2.89,1.88l-.43,7.58Z"/>
      <path class="cls-3" d="M54.85,244.95c-.67.53-2.18.47-2.83.23l-.07-7.19c-.01-1.33-.71-2.29-1.75-2.51-1.18-.25-2.61.55-2.65,2.07l-.2,7.65c-1.02.14-1.66.18-2.97-.03l.16-11.85c.99-1,2.63.46,3.31.31,2.07-.46,3.67-2.46,6.74,1.17,1.41-1.56,2.74-2.2,4.36-2.14,1.51.06,3.6.78,3.65,2.72l.28,9.81-2.93.02v-7.24c-.01-1.34-.76-2.28-1.8-2.49-3.39-.69-3.42,3.94-3.32,9.46Z"/>
      <path class="cls-9" d="M77.74,232.96l-7.57,16.55c-.4.87-2.76.65-3.05-.06.8-1.8,2.65-3.66,2.01-5.38l-4.04-10.85c.21-.8,2.6-.98,2.96-.1l2.93,7.05,3.49-7.03c.28-.57,1.95-.87,3.25-.18Z"/>
      <path class="cls-9" d="M195.37,232.96l-7.57,16.55c-.4.87-2.76.65-3.05-.06.8-1.8,2.65-3.66,2.01-5.38l-4.04-10.85c.21-.8,2.6-.98,2.96-.1l2.93,7.05,3.49-7.03c.28-.57,1.95-.87,3.25-.18Z"/>
      <path class="cls-5" d="M38.64,232.87c.95-.31,1.68-.33,2.97-.1l-.19,8.5c-.06,2.83-2.69,4.04-5.06,4.03s-5-1.19-5.06-4.03l-.18-8.52,2.91-.02.03,7.22c0,1.54,1.09,2.53,2.3,2.54s2.31-.98,2.31-2.53l-.03-7.1Z"/>
      <path class="cls-4" d="M104.84,240.62c1.79,3.61,6.35.67,7.05.94s1.44.76,1.82,1.51c-2.05,1.78-4.17,2.51-6.77,2.12-2.08-.31-4.56-1.86-5.19-4.53-.8-3.36.77-6.13,3.63-7.4,2.5-1.12,6.73-.74,8.29,2.14-1.98,2.83-5.09-1.84-8.21,1.21-1.04,1.02-1.3,2.63-.61,4.02Z"/>
      <path class="cls-7" d="M64.67,47.66c.43,3.53-.81,9.02-4.56,9.53-6.52.87-13.17.48-19.72.16-3.37-.16-4.81-4.46-5.03-7.47-.24-3.33.98-8.91,4.77-8.93l19.73-.1c2.95-.01,4.44,3.74,4.82,6.81Z"/>
      <path class="cls-7" d="M173.39,67.44c-3.49,1.74-8.39,1.84-11.42-.52-2.19-1.7-3.14-4.37-5-6.61l-5.08,6.45c-3.16,2.5-8.22,2.44-11.64.69-1.56-.8-1.34-2.53-.58-3.64l9.04-13.25-8.73-12.91c-2.35-3.47,7.1-6.24,11.55-2.95,2.19,1.61,3.26,4.42,5.12,6.6l5.67-6.73c2.87-1.99,7.63-1.61,10.47.08,1.74,1.04.9,3.29.07,4.48l-7.94,11.46,9.26,13.44c.67.97.87,2.58-.78,3.4Z"/>
      <path class="cls-7" d="M56.64,176.53c-1.05,2.96-3.91,3.75-6.32,3.77s-5.21-.81-6.31-3.48c-1.26-3.05-.46-6.56-.66-9.77-3.15-.13-6.21.44-9.1-.38s-4.04-3.63-4.11-6.16c-.08-2.78,1-5.85,4.1-6.74,2.9-.84,5.94-.27,9.1-.39.18-3.07-.48-6.31.48-9.34.87-2.73,3.6-3.81,5.85-3.9,2.56-.1,5.4.52,6.66,3.1,1.53,3.13.82,6.78.94,10.13,3.16.13,6.22-.46,9.11.42s3.89,3.71,3.97,6.15c.08,2.63-1.04,5.77-3.96,6.67s-5.94.28-9.1.42c-.13,3,.48,6.27-.66,9.48Z"/>
      <path class="cls-7" d="M180.05,164.55c.05,1.19-.29,2.02-.76,2.34-.6.43-1.41.49-2.36.48l-40.5-.16c-.52-4.2-.7-7.72.17-11.6l43.11.1.34,8.84Z"/>
      <path class="cls-7" d="M154.38,136.06c4.85-1.65,9.64,1.07,11.01,5.4,1.4,4.42-.92,9.21-5.49,10.66-4.27,1.36-9.15-.52-10.85-5.43-1.3-3.74.44-8.97,5.33-10.63Z"/>
      <path class="cls-7" d="M156.26,170.56c5.04-.52,8.92,3.08,9.47,7.32.64,4.91-2.84,9.04-7.72,9.56-4.36.46-8.54-2.52-9.28-7.21-.69-4.36,2.31-9.13,7.53-9.66Z"/>
      <path class="cls-5" d="M94.97,228.79c-.35-.96-2.88-1.31-3.48-.46l-6.26,16.95c1.89.34,3-.16,3.44-.68.36-.44.46-1.93.95-2.17,1.97-.8,5.18-.91,7.2.07.34.91.53,2.32,1.06,2.54.57.23,1.69.48,3.1.1l-6-16.35ZM91,238.71l1.9-5.53c1.34,1.89,1.7,3.36,2.25,5.57l-4.15-.03Z"/>
      <path class="cls-5" d="M141.7,228.07l-.11,6.04c-2.07-1.71-4.65-1.85-6.69-.62-1.88,1.13-2.83,3.33-2.77,5.84.06,2.42,1.31,4.59,3.03,5.56,2.09,1.18,4.44.79,6.2-.67.83,1,1.75,1.39,3.29.94v-17.04s-2.95-.05-2.95-.05ZM138.07,242.75c-2.26-.2-3.04-2.2-3.01-3.75.03-1.46.93-3.15,2.78-3.48,2.19-.4,3.69,1.3,3.96,2.88.38,2.23-.83,4.61-3.74,4.35Z"/>
      <path class="cls-4" d="M156.04,233.23c-2.88-1.2-5.8-.44-7.54,1.38-2.04,2.13-2.45,5.49-.69,7.93,2.63,3.65,8.12,3.66,10.9.24-2.74-2.42-7.33,2.43-9.04-2.85l9.94.03c.31-3.09-1.31-5.79-3.57-6.73ZM149.96,237.21c1.36-2.32,4.64-2.95,6.59-.02-2.31.52-4.06.51-6.59.02Z"/>
      <path class="cls-6" d="M129.21,232.81c-.93-.68-2.8.34-3.26.84-1.87-1.36-4.45-1.85-6.48-.36-3.46,2.53-3.6,8.57,0,11.38,1.8,1.4,4.33.79,6.22.12.77.12,2.73.97,3.55.21l-.02-12.19ZM126.13,240.66c-.48,1.4-2.3,2.77-4.55,1.64-2.47-1.25-2.38-5.26-.21-6.59,1.52-.93,3.45-.45,4.27.68.89,1.21,1.01,2.76.48,4.27Z"/>
    </g>
  </g>
</svg>